<?xml version="1.0" encoding="UTF-8"?><svg id="Layer_2" xmlns="http://www.w3.org/2000/svg" viewBox="0 0 26 33.13"><defs><style>.cls-1{fill:#5dbccc;}</style></defs><g id="Layer_1-2"><path id="Q" class="cls-1" d="M21.8,26.05l4.2,3.75-2.93,3.34-3.97-3.52c-2.13,1.64-4.77,2.47-7.45,2.35C4.69,31.96,0,27.76,0,17.97v-3.97C0,4.2,4.69,0,11.65,0s11.69,4.2,11.69,13.99v3.97c.09,2.77-.43,5.53-1.53,8.08h0ZM5.24,17.97c0,6.73,2.26,9.43,6.41,9.43,1.32,.05,2.62-.33,3.7-1.08l-3.97-3.57,3.02-3.39,3.25,2.93c.34-1.42,.49-2.88,.45-4.33v-3.97c0-6.73-2.3-9.43-6.45-9.43s-6.41,2.71-6.41,9.43v3.97Z"/></g></svg>