<?xml version="1.0" encoding="UTF-8"?>
<svg id="_レイヤー_2" data-name="レイヤー 2" xmlns="http://www.w3.org/2000/svg" viewBox="0 0 35.98 35.98">
  <defs>
    <style>
      .cls-1 {
        fill: #fff;
      }

      .cls-2 {
        fill: #565252;
      }
    </style>
  </defs>
  <g id="_レイヤー_1-2" data-name="レイヤー 1">
    <g>
      <path id="Vector-4" class="cls-2" d="M0,17.98C0,8.05,8.06,0,18,0c9.94,0,17.99,8.06,17.98,18s-8.06,17.99-18,17.98C8.05,35.98,0,27.93,0,18v-.02Z"/>
      <path id="Vector-3" class="cls-1" d="M31.52,27.48c-3.24,4.18-8.22,6.63-13.5,6.66-5.19,0-10.09-2.35-13.32-6.4,1.58-3.71,4.89-6.41,8.84-7.22-3.53-2.46-4.39-7.32-1.93-10.84,2.46-3.53,7.32-4.39,10.84-1.93,3.53,2.46,4.39,7.32,1.93,10.84-.49,.71-1.1,1.33-1.8,1.84,4,.62,7.38,3.3,8.92,7.05h.02Z"/>
    </g>
  </g>
</svg>