<?xml version="1.0" encoding="UTF-8"?>
<svg id="_レイヤー_2" data-name="レイヤー 2" xmlns="http://www.w3.org/2000/svg" viewBox="0 0 14.67 14.67">
  <defs>
    <style>
      .cls-1 {
        fill: #323334;
        fill-rule: evenodd;
      }
    </style>
  </defs>
  <g id="_レイヤー_1-2" data-name="レイヤー 1">
    <path id="Vector" class="cls-1" d="M14.67,7.33c0,4.05-3.28,7.33-7.33,7.33S0,11.38,0,7.33C0,3.28,3.28,0,7.33,0c4.05,0,7.33,3.28,7.33,7.33h0Zm-6.67,.67h2c.37,.01,.68-.27,.69-.64,.01-.37-.27-.68-.64-.69-.02,0-.03,0-.05,0h-2v-2c.01-.37-.27-.68-.64-.69s-.68,.27-.69,.64c0,.02,0,.03,0,.05v2h-2c-.37-.01-.68,.27-.69,.64s.27,.68,.64,.69c.02,0,.03,0,.05,0h2v2c-.01,.37,.27,.68,.64,.69,.37,.01,.68-.27,.69-.64,0-.02,0-.03,0-.05v-2Z"/>
  </g>
</svg>