<?xml version="1.0" encoding="UTF-8"?>
<svg id="_レイヤー_2" data-name="レイヤー 2" xmlns="http://www.w3.org/2000/svg" viewBox="0 0 32.67 39.2">
  <defs>
    <style>
      .cls-1 {
        fill: #5dbccc;
      }
    </style>
  </defs>
  <g id="_レイヤー_1-2" data-name="レイヤー 1">
    <path class="cls-1" d="M24.67,0H8C3.58,0,0,3.58,0,8V24.67c0,4.42,3.58,8,8,8h5.07v6.53l6.53-6.53h5.07c4.42,0,8-3.58,8-8V8c0-4.42-3.58-8-8-8Zm-7.16,24.5h-2.8v-3.03h2.8v3.03Zm1.31-8.25l-.74,.77c-.51,.43-.8,1.08-.76,1.75v.87h-2.42v-1.85c-.08-.82,.21-1.64,.81-2.21l1.12-1.11c1.07-1.08,1.66-1.85,1.66-3.11,.08-1.17-.8-2.18-1.97-2.26-.07,0-.14,0-.21,0-1.16-.07-2.15,.81-2.23,1.96,0,.07,0,.15,0,.22h-2.63c-.11-2.52,1.85-4.65,4.37-4.76,.16,0,.33,0,.49,0,2.56-.16,4.77,1.79,4.93,4.35,.01,.19,.01,.37,0,.56-.12,1.87-.99,3.6-2.42,4.81Z"/>
  </g>
</svg>