<?xml version="1.0" encoding="UTF-8"?>
<svg id="_レイヤー_2" data-name="レイヤー 2" xmlns="http://www.w3.org/2000/svg" viewBox="0 0 34 38.05">
  <defs>
    <style>
      .cls-1 {
        fill: none;
      }

      .cls-2 {
        fill: #5dbccc;
      }
    </style>
  </defs>
  <g id="_レイヤー_1-2" data-name="レイヤー 1">
    <g id="Frame">
      <rect id="Frame-2" class="cls-1" y=".05" width="34" height="38"/>
      <path id="Vector" class="cls-2" d="M32.51,9.65c.79-.01,1.45,.62,1.46,1.41,0,0,0,0,0,.01v4.03c0,.79-.66,1.43-1.45,1.43,0,0,0,0-.01,0h-1.46v-6.91h1.46v.02Z"/>
      <path id="Vector-2" class="cls-2" d="M32.51,26.2c.79-.01,1.45,.62,1.46,1.41,0,0,0,0,0,.01v4.03c0,.79-.66,1.43-1.45,1.43,0,0,0,0-.01,0h-1.46v-6.91h1.46v.02Z"/>
      <path id="Vector-3" class="cls-2" d="M32.51,17.94c.79-.01,1.45,.62,1.46,1.41,0,0,0,0,0,.01v4.03c0,.79-.66,1.43-1.45,1.43,0,0,0,0-.01,0h-1.46v-6.91h1.46v.02Z"/>
      <path id="Vector-4" class="cls-2" d="M29.8,11.14v22.67c-.03,2.35-1.95,4.24-4.31,4.21,0,0,0,0-.01,0H3.13c-1.71,.02-3.11-1.35-3.13-3.06V4.73C0,3.49,.52,2.29,1.42,1.43,2.33,.54,3.54,.03,4.81,0H25.06c.69-.02,1.26,.52,1.28,1.21,0,.01,0,.02,0,.04,0,.69-.58,1.25-1.27,1.25,0,0,0,0,0,0H4.81c-.6,0-1.17,.24-1.6,.66-.86,.81-.9,2.17-.09,3.04,.03,.03,.06,.06,.09,.09,.43,.42,1,.66,1.6,.66H14.14v11.66c0,.38,.21,.73,.56,.88,.34,.16,.74,.11,1.05-.11l2.97-2.24,2.97,2.24c.3,.23,.7,.27,1.05,.11,.34-.17,.55-.51,.56-.88V6.93h2.18c2.35-.03,4.29,1.85,4.32,4.2,0,0,0,0,0,.01h0Z"/>
    </g>
  </g>
</svg>