<svg id="Frame_136" data-name="Frame 136" xmlns="http://www.w3.org/2000/svg" width="90.707" height="20" viewBox="0 0 90.707 20">
  <g id="Frame" transform="translate(0 20)">
    <rect id="Frame-2" data-name="Frame" width="20" height="20" transform="translate(0 -20)" fill="none"/>
    <path id="Vector" d="M16.258-6.836a.428.428,0,0,0,.408-.428V-9.4a.428.428,0,0,0-.408-.428L14.44-9.915a.427.427,0,0,1-.376-.264l-.375-.9a.428.428,0,0,1,.08-.453L15-12.877a.43.43,0,0,0-.014-.592L13.47-14.982A.43.43,0,0,0,12.878-15l-1.345,1.227a.429.429,0,0,1-.453.079l-.9-.374a.429.429,0,0,1-.263-.377l-.084-1.817a.429.429,0,0,0-.428-.409H7.264a.429.429,0,0,0-.428.409L6.752-14.44a.428.428,0,0,1-.263.377l-.9.374a.429.429,0,0,1-.453-.079L3.789-15a.429.429,0,0,0-.592.014L1.684-13.47a.429.429,0,0,0-.013.592L2.9-11.533a.426.426,0,0,1,.079.453l-.373.9a.427.427,0,0,1-.376.264L.409-9.831A.429.429,0,0,0,0-9.4v2.139a.429.429,0,0,0,.409.428l1.818.084a.428.428,0,0,1,.376.264l.373.9a.428.428,0,0,1-.079.453L1.671-3.788a.428.428,0,0,0,.014.592L3.2-1.685a.429.429,0,0,0,.593.013L5.134-2.9a.427.427,0,0,1,.453-.079l.9.374a.428.428,0,0,1,.263.377L6.836-.409A.429.429,0,0,0,7.264,0H9.4a.429.429,0,0,0,.428-.409l.084-1.817a.427.427,0,0,1,.263-.377l.9-.374a.429.429,0,0,1,.453.079l1.345,1.226a.429.429,0,0,0,.593-.013L14.983-3.2A.429.429,0,0,0,15-3.788L13.77-5.134a.429.429,0,0,1-.08-.453l.375-.9a.428.428,0,0,1,.376-.264l1.818-.084Zm-5.2-1.5A2.722,2.722,0,0,1,8.334-5.611,2.723,2.723,0,0,1,5.612-8.333a2.723,2.723,0,0,1,2.722-2.722,2.722,2.722,0,0,1,2.722,2.722Z" transform="translate(2 -1.333)" fill="#575252"/>
  </g>
  <g id="Frame_132" data-name="Frame 132" transform="translate(22 -2)">
    <text id="各種設定" transform="translate(0 2)" fill="#323334" font-size="14" font-family="YuGothicUI-Regular, Yu Gothic UI"><tspan x="0" y="15">各種設定</tspan></text>
    <path id="Vector_12" data-name="Vector 12" d="M0,0,4,4,0,8" transform="translate(68 10.5) rotate(90)" fill="none" stroke="#5dbccc" stroke-width="2"/>
  </g>
</svg>
