<?xml version="1.0" encoding="UTF-8"?>
<svg id="_レイヤー_2" data-name="レイヤー 2" xmlns="http://www.w3.org/2000/svg" viewBox="0 0 34 38.05">
  <defs>
    <style>
      .cls-1 {
        fill: none;
      }
      .cls-2 {
        fill: #575252;
      }
    </style>
  </defs>
  <g id="_レイヤー_1-2" data-name="レイヤー 1">
    <g id="Frame">
      <rect id="Frame-2" class="cls-1" width="22" height="22.6"/>
      <path id="Vector" class="cls-2" d="M 32.5 9.7 c 0.8 0 1.4 0.6 1.5 1.4 c 0 0 0 0 0 0 v 4 c 0 0.8 -0.7 1.4 -1.4 1.4 c 0 0 0 0 0 0 h -1.5 v -6.9 h 1.5 v 0 Z"/>
      <path id="Vector-2" class="cls-2" d="M 32.5 26.2 c 0.8 0 1.4 0.6 1.5 1.4 c 0 0 0 0 0 0 v 4 c 0 0.8 -0.7 1.4 -1.4 1.4 c 0 0 0 0 0 0 h -1.5 v -6.9 h 1.5 v 0 Z"/>
      <path id="Vector-3" class="cls-2" d="M 32.5 17.9 c 0.8 0 1.4 0.6 1.5 1.4 c 0 0 0 0 0 0 v 4 c 0 0.8 -0.7 1.4 -1.4 1.4 c 0 0 0 0 0 0 h -1.5 v -6.9 h 1.5 v 0 Z"/>
      <path id="Vector-4" class="cls-2" d="M 29.8 11.1 v 22.7 c 0 2.4 -1.9 4.2 -4.3 4.2 c 0 0 0 0 0 0 H 3.1 c -1.7 0 -3.1 -1.4 -3.1 -3.1 V 4.7 C 0 3.5 0.5 2.3 1.4 1.4 C 2.3 0.5 3.5 0 4.8 0 H 25.1 c 0.7 0 1.3 0.5 1.3 1.2 c 0 0 0 0 0 0 c 0 0.7 -0.6 1.3 -1.3 1.3 c 0 0 0 0 0 0 H 4.8 c -0.6 0 -1.2 0.2 -1.6 0.7 c -0.9 0.8 -0.9 2.2 -0.1 3 c 0 0 0.1 0.1 0.1 0.1 c 0.4 0.4 1 0.7 1.6 0.7 H 14.1 v 11.7 c 0 0.4 0.2 0.7 0.6 0.9 c 0.3 0.2 0.7 0.1 1.1 -0.1 l 3 -2.2 l 3 2.2 c 0.3 0.2 0.7 0.3 1.1 0.1 c 0.3 -0.2 0.6 -0.5 0.6 -0.9 V 6.9 h 2.2 c 2.4 0 4.3 1.9 4.3 4.2 c 0 0 0 0 0 0 h 0 Z"/>
    </g>
  </g>
</svg>