<?xml version="1.0" encoding="UTF-8"?>
<svg id="_レイヤー_2" data-name="レイヤー 2" xmlns="http://www.w3.org/2000/svg" viewBox="0 0 21.23 16">
  <defs>
    <style>
      .cls-1 {
        fill: #575252;
      }
    </style>
  </defs>
  <g id="_レイヤー_1-2" data-name="レイヤー 1">
    <g>
      <path class="cls-1" d="M10.61,16c-4.51,0-8.23-3.98-10.05-6.35-.75-.97-.75-2.33,0-3.3C2.38,3.98,6.1,0,10.61,0s8.23,3.98,10.05,6.35c.75,.97,.75,2.33,0,3.3-1.82,2.37-5.54,6.35-10.05,6.35Zm0-14c-3.79,0-7.18,3.9-8.46,5.57-.2,.26-.2,.6,0,.85,1.29,1.68,4.68,5.58,8.47,5.58s7.18-3.9,8.46-5.57c.2-.25,.2-.6,0-.85,0,0,0,0,0,0-1.28-1.67-4.68-5.57-8.46-5.57Z"/>
      <path class="cls-1" d="M10.61,12c-2.21,0-4-1.79-4-4s1.79-4,4-4,4,1.79,4,4-1.79,4-4,4Zm0-6c-1.1,0-2,.9-2,2s.9,2,2,2,2-.9,2-2-.9-2-2-2Z"/>
    </g>
  </g>
</svg>