<?xml version="1.0" encoding="UTF-8"?>
<svg id="_レイヤー_2" data-name="レイヤー 2" xmlns="http://www.w3.org/2000/svg" viewBox="0 0 21.23 16.41">
  <defs>
    <style>
      .cls-1 {
        fill: #575252;
      }
    </style>
  </defs>
  <g id="_レイヤー_1-2" data-name="レイヤー 1">
    <g>
      <rect class="cls-1" x="9.61" y="-2.4" width="2" height="21.21" transform="translate(-2.69 9.91) rotate(-45)"/>
      <g>
        <path class="cls-1" d="M20.66,9.86c.75-.97,.75-2.33,0-3.3C18.84,4.18,15.12,.21,10.61,.21c-1.46,0-2.84,.42-4.1,1.07l1.51,1.51c.83-.35,1.7-.58,2.59-.58,3.79,0,7.18,3.9,8.46,5.57,0,0,0,0,0,0,.19,.25,.19,.6,0,.85-.52,.68-1.39,1.72-2.49,2.72l1.42,1.42c1.09-1.01,2-2.07,2.65-2.92Z"/>
        <path class="cls-1" d="M10.61,14.21c-3.79,0-7.18-3.9-8.47-5.58-.19-.25-.19-.6,0-.85,.52-.68,1.39-1.72,2.49-2.72l-1.42-1.42c-1.09,1.01-2,2.07-2.65,2.92-.75,.97-.75,2.33,0,3.3,1.82,2.37,5.54,6.35,10.05,6.35,1.46,0,2.84-.42,4.1-1.07l-1.51-1.51c-.83,.35-1.7,.58-2.59,.58Z"/>
        <path class="cls-1" d="M6.61,8.21c0,2.21,1.79,4,4,4,.36,0,.69-.06,1.02-.15L6.76,7.18c-.09,.33-.15,.67-.15,1.02Z"/>
        <path class="cls-1" d="M14.61,8.21c0-2.21-1.79-4-4-4-.36,0-.69,.06-1.02,.15l4.87,4.87c.09-.33,.15-.67,.15-1.02Z"/>
      </g>
    </g>
  </g>
</svg>