<svg xmlns="http://www.w3.org/2000/svg" width="21.294" height="17.828" viewBox="0 0 21.294 17.828">
  <path id="Vector" d="M18.87,5.962a1.693,1.693,0,0,1,0,2.076C17.377,9.987,13.795,14,9.613,14S1.849,9.987.356,8.038a1.692,1.692,0,0,1,0-2.076C1.849,4.013,5.431,0,9.613,0S17.377,4.013,18.87,5.962Z" transform="translate(1 2.414)" fill="none" stroke="#575252" stroke-linecap="round" stroke-linejoin="round" stroke-width="2"/>
  <path id="Vector-2" data-name="Vector" d="M6,3A3,3,0,1,1,3,0,3,3,0,0,1,6,3Z" transform="translate(7.613 6.414)" fill="none" stroke="#575252" stroke-linecap="round" stroke-linejoin="round" stroke-width="2"/>
  <path id="Vector_22" data-name="Vector 22" d="M0,0,15,15" transform="translate(2.613 1.414)" fill="none" stroke="#e6e6e6" stroke-width="4"/>
  <path id="Vector_21" data-name="Vector 21" d="M0,0,15,15" transform="translate(2.613 1.414)" fill="none" stroke="#575252" stroke-width="2"/>
</svg>
