<?xml version="1.0" encoding="UTF-8"?><svg id="Layer_2" xmlns="http://www.w3.org/2000/svg" viewBox="0 0 13 10"><defs><style>.cls-1{fill:none;}.cls-2{fill:#323334;}</style></defs><g id="Layer_1-2"><g id="Frame-3"><rect id="Frame-4" class="cls-1" width="13" height="10"/><g id="Group"><path id="Vector" class="cls-2" d="M2,1c0,.55-.45,1-1,1S0,1.55,0,1,.45,0,1,0s1,.45,1,1Z"/><path id="Vector-2" class="cls-2" d="M3.95,.05H12.05c.52,0,.95,.43,.95,.95s-.43,.95-.95,.95H3.95c-.52,0-.95-.43-.95-.95S3.43,.05,3.95,.05Z"/></g><g id="Group-2"><path id="Vector-3" class="cls-2" d="M2,5c0,.55-.45,1-1,1s-1-.45-1-1,.45-1,1-1,1,.45,1,1Z"/><path id="Vector-4" class="cls-2" d="M3.95,4.05H12.05c.52,0,.95,.43,.95,.95h0c0,.52-.43,.95-.95,.95H3.95c-.52,0-.95-.43-.95-.95h0c0-.52,.43-.95,.95-.95h0Z"/></g><g id="Group-3"><path id="Vector-5" class="cls-2" d="M2,9c0,.55-.45,1-1,1s-1-.45-1-1,.45-1,1-1,1,.45,1,1Z"/><path id="Vector-6" class="cls-2" d="M3.95,8.05H12.05c.52,0,.95,.43,.95,.95h0c0,.52-.43,.95-.95,.95H3.95c-.52,0-.95-.43-.95-.95h0c0-.52,.43-.95,.95-.95h0Z"/></g></g></g></svg>